<?xml version="1.0" encoding="UTF-8"?>
<svg viewBox="0 0 15 15" version="1.1" xmlns="http://www.w3.org/2000/svg" xmlns:xlink="http://www.w3.org/1999/xlink">
  <path d="M11.57 1.11C10.82 1.96 9.86 2.82 8.36 3.46C5.79 4.43 3.64 4.75 3.64 4.75L3.64 4.75L1.07 5.18C0.64 5.29 0.32 5.61 0.43 6.04C0.54 6.36 0.75 6.57 1.18 6.57C1.18 6.57 1.29 6.57 1.29 6.57L3.86 6.14C3.86 6.14 3.86 6.14 3.86 6.14C3.86 6.14 3.86 6.14 3.86 6.25C3.86 6.25 3.86 6.25 3.86 6.25C2.04 7.11 0.43 7.96 0.32 8.07C0 8.29 -0.11 8.71 0.11 9.04C0.21 9.25 0.54 9.36 0.75 9.36C0.86 9.36 0.96 9.36 1.07 9.25C1.07 9.25 2.79 8.29 4.82 7.43C4.82 7.43 4.82 7.43 4.82 7.43C4.82 7.43 4.93 7.43 4.82 7.54C4.82 7.54 4.82 7.54 4.82 7.54C3.75 8.18 2.46 9.25 1.61 10.64C1.39 10.96 1.5 11.5 1.82 11.71C1.93 11.71 2.04 11.82 2.14 11.82C2.36 11.82 2.57 11.71 2.79 11.5C3.32 10.64 4.07 9.89 4.82 9.36C4.82 9.36 6.75 7.64 8.68 8.07C10.61 8.39 9.86 9.89 9.75 10.75C9.64 11.61 10.07 12.04 10.39 12.14C10.5 12.14 10.5 12.14 10.61 12.25C10.82 12.25 10.93 12.04 10.93 12.04C10.93 12.04 10.93 11.93 10.93 11.93C12 7.96 13.5 5.29 15 3.36L11.57 1.11Z"/>
</svg>