<?xml version="1.0" encoding="UTF-8"?>
<svg viewBox="0 0 15 15" version="1.1" xmlns="http://www.w3.org/2000/svg" xmlns:xlink="http://www.w3.org/1999/xlink">
  <path d="M0,4.500345 C0.8,4.500345 2.29,6.89572965 3,6.89572965 C3.67,6.89572965 5.24,4.500345 6,4.500345 C6.76,4.500345 8.33,6.89572965 9,6.89572965 C9.8,6.89572965 11.28,4.500345 12,4.500345 C12.8,4.46676484 14.38,6.89572965 15,6.89572965 L15,10.5 C14.24,10.5 12.71,8.10461535 12,8.10461535 C11.29,8.10461535 9.76,10.5 9,10.5 C8.28,10.5 6.76,8.10461535 6,8.10461535 C5.24,8.10461535 3.71,10.5 3,10.5 C2.2,10.5 0.76,8.10461535 0,8.10461535 L0,4.500345 Z"/>
</svg>