<svg xmlns="http://www.w3.org/2000/svg" viewBox="0 0 15 15">
  <path d="M4.5 7L6.5 7C6.78 7 7 7.22 7 7.5L7 14L4 14L4 7.5C4 7.22 4.22 7 4.5 7ZM0.5 10L2.5 10C2.78 10 3 10.22 3 10.5L3 14L0 14L0 10.5C0 10.25 0.18 10.05 0.41 10.01L0.5 10ZM8.5 4L10.5 4C10.78 4 11 4.22 11 4.5L11 14L8 14L8 4.5C8 4.22 8.22 4 8.5 4ZM14.5 13L14 13L14 13.5L14.5 13.5L14.5 13ZM13.5 13L13 13L13 13.5L13.5 13.5L13.5 13ZM13 12.5L12.5 12.5L12.5 13L13 13L13 12.5ZM14 12.5L13.5 12.5L13.5 13L14 13L14 12.5ZM13.5 12L13 12L13 12.5L13.5 12.5L13.5 12ZM14.5 12L14 12L14 12.5L14.5 12.5L14.5 12ZM13 11.5L12.5 11.5L12.5 12L13 12L13 11.5ZM14 11.5L13.5 11.5L13.5 12L14 12L14 11.5ZM13.5 11L13 11L13 11.5L13.5 11.5L13.5 11ZM14.5 11L14 11L14 11.5L14.5 11.5L14.5 11ZM13 10.5L12.5 10.5L12.5 11L13 11L13 10.5ZM14 10.5L13.5 10.5L13.5 11L14 11L14 10.5ZM14.5 10L14 10L14 10.5L14.5 10.5L14.5 10ZM13.5 10L13 10L13 10.5L13.5 10.5L13.5 10ZM13 9.5L12.5 9.5L12.5 10L13 10L13 9.5ZM14 9.5L13.5 9.5L13.5 10L14 10L14 9.5ZM13.5 9L13 9L13 9.5L13.5 9.5L13.5 9ZM14.5 9L14 9L14 9.5L14.5 9.5L14.5 9ZM14 8.5L13.5 8.5L13.5 9L14 9L14 8.5ZM13 8.5L12.5 8.5L12.5 9L13 9L13 8.5ZM13.5 8L13 8L13 8.5L13.5 8.5L13.5 8ZM14.5 8L14 8L14 8.5L14.5 8.5L14.5 8ZM13 7.5L12.5 7.5L12.5 8L13 8L13 7.5ZM14 7.5L13.5 7.5L13.5 8L14 8L14 7.5ZM13.5 7L13 7L13 7.5L13.5 7.5L13.5 7ZM14.5 7L14 7L14 7.5L14.5 7.5L14.5 7ZM13 6.5L12.5 6.5L12.5 7L13 7L13 6.5ZM14 6.5L13.5 6.5L13.5 7L14 7L14 6.5ZM14.5 6L14 6L14 6.5L14.5 6.5L14.5 6ZM13.5 6L13 6L13 6.5L13.5 6.5L13.5 6ZM14 5.5L13.5 5.5L13.5 6L14 6L14 5.5ZM13 5.5L12.5 5.5L12.5 6L13 6L13 5.5ZM13.5 5L13 5L13 5.5L13.5 5.5L13.5 5ZM14.5 5L14 5L14 5.5L14.5 5.5L14.5 5ZM13 4.5L12.5 4.5L12.5 5L13 5L13 4.5ZM14 4.5L13.5 4.5L13.5 5L14 5L14 4.5ZM14.5 4L14 4L14 4.5L14.5 4.5L14.5 4ZM13.5 4L13 4L13 4.5L13.5 4.5L13.5 4ZM14 3.5L13.5 3.5L13.5 4L14 4L14 3.5ZM13 3.5L12.5 3.5L12.5 4L13 4L13 3.5ZM13.5 3L13 3L13 3.5L13.5 3.5L13.5 3ZM14.5 3L14 3L14 3.5L14.5 3.5L14.5 3ZM14 2.5L13.5 2.5L13.5 3L14 3L14 2.5ZM13 2.5L12.5 2.5L12.5 3L13 3L13 2.5ZM12 1.5L12.5 1.5L12.5 1L14.5 1C14.78 1 15 1.22 15 1.5L14.5 1.5L14.5 2L15 2L15 2.5L14.5 2.5L14.5 3L15 3L15 3.5L14.5 3.5L14.5 4L15 4L15 4.5L14.5 4.5L14.5 5L15 5L15 5.5L14.5 5.5L14.5 6L15 6L15 6.5L14.5 6.5L14.5 7L15 7L15 7.5L14.5 7.5L14.5 8L15 8L15 8.5L14.5 8.5L14.5 9L15 9L15 9.5L14.5 9.5L14.5 10L15 10L15 10.5L14.5 10.5L14.5 11L15 11L15 11.5L14.5 11.5L14.5 12L15 12L15 12.5L14.5 12.5L14.5 13L15 13L15 13.5L14.5 13.5L14.5 14L14 14L14 13.5L13.5 13.5L13.5 14L13 14L13 13.5L12.5 13.5L12.5 14L12 14L12 13.5L12.5 13.5L12.5 13L12 13L12 12.5L12.5 12.5L12.5 12L12 12L12 11.5L12.5 11.5L12.5 11L12 11L12 10.5L12.5 10.5L12.5 10L12 10L12 9.5L12.5 9.5L12.5 9L12 9L12 8.5L12.5 8.5L12.5 8L12 8L12 7.5L12.5 7.5L12.5 7L12 7L12 6.5L12.5 6.5L12.5 6L12 6L12 5.5L12.5 5.5L12.5 5L12 5L12 4.5L12.5 4.5L12.5 4L12 4L12 3.5L12.5 3.5L12.5 3L12 3L12 2.5L12.5 2.5L12.5 2L12 2L12 1.5ZM13.5 2L13 2L13 2.5L13.5 2.5L13.5 2ZM14.5 2L14 2L14 2.5L14.5 2.5L14.5 2ZM14 1.5L13.5 1.5L13.5 2L14 2L14 1.5ZM13 1.5L12.5 1.5L12.5 2L13 2L13 1.5ZM14.5 1L14 1L14 1.5L14.5 1.5L14.5 1ZM13.5 1L13 1L13 1.5L13.5 1.5L13.5 1Z"/>
</svg>