<svg xmlns="http://www.w3.org/2000/svg" viewBox="0 0 15 15">
  <path d="M0.5 10L2.5 10C2.78 10 3 10.22 3 10.5L3 14L0 14L0 10.5C0 10.25 0.18 10.05 0.41 10.01L0.5 10ZM9.5 13L9 13L9 13.5L9.5 13.5L9.5 13ZM5.5 13L5 13L5 13.5L5.5 13.5L5.5 13ZM10.5 13L10 13L10 13.5L10.5 13.5L10.5 13ZM6.5 13L6 13L6 13.5L6.5 13.5L6.5 13ZM14.5 13L14 13L14 13.5L14.5 13.5L14.5 13ZM13.5 13L13 13L13 13.5L13.5 13.5L13.5 13ZM9 12.5L8.5 12.5L8.5 13L9 13L9 12.5ZM10 12.5L9.5 12.5L9.5 13L10 13L10 12.5ZM5 12.5L4.5 12.5L4.5 13L5 13L5 12.5ZM13 12.5L12.5 12.5L12.5 13L13 13L13 12.5ZM14 12.5L13.5 12.5L13.5 13L14 13L14 12.5ZM6 12.5L5.5 12.5L5.5 13L6 13L6 12.5ZM5.5 12L5 12L5 12.5L5.5 12.5L5.5 12ZM10.5 12L10 12L10 12.5L10.5 12.5L10.5 12ZM9.5 12L9 12L9 12.5L9.5 12.5L9.5 12ZM6.5 12L6 12L6 12.5L6.5 12.5L6.5 12ZM13.5 12L13 12L13 12.5L13.5 12.5L13.5 12ZM14.5 12L14 12L14 12.5L14.5 12.5L14.5 12ZM10 11.5L9.5 11.5L9.5 12L10 12L10 11.5ZM9 11.5L8.5 11.5L8.5 12L9 12L9 11.5ZM13 11.5L12.5 11.5L12.5 12L13 12L13 11.5ZM14 11.5L13.5 11.5L13.5 12L14 12L14 11.5ZM5 11.5L4.5 11.5L4.5 12L5 12L5 11.5ZM6 11.5L5.5 11.5L5.5 12L6 12L6 11.5ZM5.5 11L5 11L5 11.5L5.5 11.5L5.5 11ZM6.5 11L6 11L6 11.5L6.5 11.5L6.5 11ZM9.5 11L9 11L9 11.5L9.5 11.5L9.5 11ZM10.5 11L10 11L10 11.5L10.5 11.5L10.5 11ZM13.5 11L13 11L13 11.5L13.5 11.5L13.5 11ZM14.5 11L14 11L14 11.5L14.5 11.5L14.5 11ZM5 10.5L4.5 10.5L4.5 11L5 11L5 10.5ZM10 10.5L9.5 10.5L9.5 11L10 11L10 10.5ZM9 10.5L8.5 10.5L8.5 11L9 11L9 10.5ZM6 10.5L5.5 10.5L5.5 11L6 11L6 10.5ZM13 10.5L12.5 10.5L12.5 11L13 11L13 10.5ZM14 10.5L13.5 10.5L13.5 11L14 11L14 10.5ZM5.5 10L5 10L5 10.5L5.5 10.5L5.5 10ZM14.5 10L14 10L14 10.5L14.5 10.5L14.5 10ZM13.5 10L13 10L13 10.5L13.5 10.5L13.5 10ZM6.5 10L6 10L6 10.5L6.5 10.5L6.5 10ZM10.5 10L10 10L10 10.5L10.5 10.5L10.5 10ZM9.5 10L9 10L9 10.5L9.5 10.5L9.5 10ZM10 9.5L9.5 9.5L9.5 10L10 10L10 9.5ZM9 9.5L8.5 9.5L8.5 10L9 10L9 9.5ZM5 9.5L4.5 9.5L4.5 10L5 10L5 9.5ZM6 9.5L5.5 9.5L5.5 10L6 10L6 9.5ZM13 9.5L12.5 9.5L12.5 10L13 10L13 9.5ZM14 9.5L13.5 9.5L13.5 10L14 10L14 9.5ZM13.5 9L13 9L13 9.5L13.5 9.5L13.5 9ZM14.5 9L14 9L14 9.5L14.5 9.5L14.5 9ZM10.5 9L10 9L10 9.5L10.5 9.5L10.5 9ZM5.5 9L5 9L5 9.5L5.5 9.5L5.5 9ZM9.5 9L9 9L9 9.5L9.5 9.5L9.5 9ZM6.5 9L6 9L6 9.5L6.5 9.5L6.5 9ZM9 8.5L8.5 8.5L8.5 9L9 9L9 8.5ZM10 8.5L9.5 8.5L9.5 9L10 9L10 8.5ZM14 8.5L13.5 8.5L13.5 9L14 9L14 8.5ZM13 8.5L12.5 8.5L12.5 9L13 9L13 8.5ZM5 8.5L4.5 8.5L4.5 9L5 9L5 8.5ZM6 8.5L5.5 8.5L5.5 9L6 9L6 8.5ZM6.5 8L6 8L6 8.5L6.5 8.5L6.5 8ZM10.5 8L10 8L10 8.5L10.5 8.5L10.5 8ZM5.5 8L5 8L5 8.5L5.5 8.5L5.5 8ZM9.5 8L9 8L9 8.5L9.5 8.5L9.5 8ZM13.5 8L13 8L13 8.5L13.5 8.5L13.5 8ZM14.5 8L14 8L14 8.5L14.5 8.5L14.5 8ZM4 7.5L4.5 7.5L4.5 7L6.5 7C6.78 7 7 7.22 7 7.5L6.5 7.5L6.5 8L7 8L7 8.5L6.5 8.5L6.5 9L7 9L7 9.5L6.5 9.5L6.5 10L7 10L7 10.5L6.5 10.5L6.5 11L7 11L7 11.5L6.5 11.5L6.5 12L7 12L7 12.5L6.5 12.5L6.5 13L7 13L7 13.5L6.5 13.5L6.5 14L6 14L6 13.5L5.5 13.5L5.5 14L5 14L5 13.5L4.5 13.5L4.5 14L4 14L4 13.5L4.5 13.5L4.5 13L4 13L4 12.5L4.5 12.5L4.5 12L4 12L4 11.5L4.5 11.5L4.5 11L4 11L4 10.5L4.5 10.5L4.5 10L4 10L4 9.5L4.5 9.5L4.5 9L4 9L4 8.5L4.5 8.5L4.5 8L4 8L4 7.5ZM10 7.5L9.5 7.5L9.5 8L10 8L10 7.5ZM6 7.5L5.5 7.5L5.5 8L6 8L6 7.5ZM14 7.5L13.5 7.5L13.5 8L14 8L14 7.5ZM9 7.5L8.5 7.5L8.5 8L9 8L9 7.5ZM5 7.5L4.5 7.5L4.5 8L5 8L5 7.5ZM13 7.5L12.5 7.5L12.5 8L13 8L13 7.5ZM10.5 7L10 7L10 7.5L10.5 7.5L10.5 7ZM6.5 7L6 7L6 7.5L6.5 7.5L6.5 7ZM9.5 7L9 7L9 7.5L9.5 7.5L9.5 7ZM5.5 7L5 7L5 7.5L5.5 7.5L5.5 7ZM13.5 7L13 7L13 7.5L13.5 7.5L13.5 7ZM14.5 7L14 7L14 7.5L14.5 7.5L14.5 7ZM9 6.5L8.5 6.5L8.5 7L9 7L9 6.5ZM13 6.5L12.5 6.5L12.5 7L13 7L13 6.5ZM14 6.5L13.5 6.5L13.5 7L14 7L14 6.5ZM10 6.5L9.5 6.5L9.5 7L10 7L10 6.5ZM14.5 6L14 6L14 6.5L14.5 6.5L14.5 6ZM9.5 6L9 6L9 6.5L9.5 6.5L9.5 6ZM10.5 6L10 6L10 6.5L10.5 6.5L10.5 6ZM13.5 6L13 6L13 6.5L13.5 6.5L13.5 6ZM14 5.5L13.5 5.5L13.5 6L14 6L14 5.5ZM10 5.5L9.5 5.5L9.5 6L10 6L10 5.5ZM9 5.5L8.5 5.5L8.5 6L9 6L9 5.5ZM13 5.5L12.5 5.5L12.5 6L13 6L13 5.5ZM9.5 5L9 5L9 5.5L9.5 5.5L9.5 5ZM10.5 5L10 5L10 5.5L10.5 5.5L10.5 5ZM8 4.5L8.5 4.5L8.5 4L10.5 4C10.78 4 11 4.22 11 4.5L10.5 4.5L10.5 5L11 5L11 5.5L10.5 5.5L10.5 6L11 6L11 6.5L10.5 6.5L10.5 7L11 7L11 7.5L10.5 7.5L10.5 8L11 8L11 8.5L10.5 8.5L10.5 9L11 9L11 9.5L10.5 9.5L10.5 10L11 10L11 10.5L10.5 10.5L10.5 11L11 11L11 11.5L10.5 11.5L10.5 12L11 12L11 12.5L10.5 12.5L10.5 13L11 13L11 13.5L10.5 13.5L10.5 14L10 14L10 13.5L9.5 13.5L9.5 14L9 14L9 13.5L8.5 13.5L8.5 14L8 14L8 13.5L8.5 13.5L8.5 13L8 13L8 12.5L8.5 12.5L8.5 12L8 12L8 11.5L8.5 11.5L8.5 11L8 11L8 10.5L8.5 10.5L8.5 10L8 10L8 9.5L8.5 9.5L8.5 9L8 9L8 8.5L8.5 8.5L8.5 8L8 8L8 7.5L8.5 7.5L8.5 7L8 7L8 6.5L8.5 6.5L8.5 6L8 6L8 5.5L8.5 5.5L8.5 5L8 5L8 4.5ZM13.5 5L13 5L13 5.5L13.5 5.5L13.5 5ZM14.5 5L14 5L14 5.5L14.5 5.5L14.5 5ZM10 4.5L9.5 4.5L9.5 5L10 5L10 4.5ZM9 4.5L8.5 4.5L8.5 5L9 5L9 4.5ZM13 4.5L12.5 4.5L12.5 5L13 5L13 4.5ZM14 4.5L13.5 4.5L13.5 5L14 5L14 4.5ZM9.5 4L9 4L9 4.5L9.5 4.5L9.5 4ZM14.5 4L14 4L14 4.5L14.5 4.5L14.5 4ZM13.5 4L13 4L13 4.5L13.5 4.5L13.5 4ZM10.5 4L10 4L10 4.5L10.5 4.5L10.5 4ZM14 3.5L13.5 3.5L13.5 4L14 4L14 3.5ZM13 3.5L12.5 3.5L12.5 4L13 4L13 3.5ZM13.5 3L13 3L13 3.5L13.5 3.5L13.5 3ZM14.5 3L14 3L14 3.5L14.5 3.5L14.5 3ZM14 2.5L13.5 2.5L13.5 3L14 3L14 2.5ZM13 2.5L12.5 2.5L12.5 3L13 3L13 2.5ZM12 1.5L12.5 1.5L12.5 1L14.5 1C14.78 1 15 1.22 15 1.5L14.5 1.5L14.5 2L15 2L15 2.5L14.5 2.5L14.5 3L15 3L15 3.5L14.5 3.5L14.5 4L15 4L15 4.5L14.5 4.5L14.5 5L15 5L15 5.5L14.5 5.5L14.5 6L15 6L15 6.5L14.5 6.5L14.5 7L15 7L15 7.5L14.5 7.5L14.5 8L15 8L15 8.5L14.5 8.5L14.5 9L15 9L15 9.5L14.5 9.5L14.5 10L15 10L15 10.5L14.5 10.5L14.5 11L15 11L15 11.5L14.5 11.5L14.5 12L15 12L15 12.5L14.5 12.5L14.5 13L15 13L15 13.5L14.5 13.5L14.5 14L14 14L14 13.5L13.5 13.5L13.5 14L13 14L13 13.5L12.5 13.5L12.5 14L12 14L12 13.5L12.5 13.5L12.5 13L12 13L12 12.5L12.5 12.5L12.5 12L12 12L12 11.5L12.5 11.5L12.5 11L12 11L12 10.5L12.5 10.5L12.5 10L12 10L12 9.5L12.5 9.5L12.5 9L12 9L12 8.5L12.5 8.5L12.5 8L12 8L12 7.5L12.5 7.5L12.5 7L12 7L12 6.5L12.5 6.5L12.5 6L12 6L12 5.5L12.5 5.5L12.5 5L12 5L12 4.5L12.5 4.5L12.5 4L12 4L12 3.5L12.5 3.5L12.5 3L12 3L12 2.5L12.5 2.5L12.5 2L12 2L12 1.5ZM13.5 2L13 2L13 2.5L13.5 2.5L13.5 2ZM14.5 2L14 2L14 2.5L14.5 2.5L14.5 2ZM14 1.5L13.5 1.5L13.5 2L14 2L14 1.5ZM13 1.5L12.5 1.5L12.5 2L13 2L13 1.5ZM14.5 1L14 1L14 1.5L14.5 1.5L14.5 1ZM13.5 1L13 1L13 1.5L13.5 1.5L13.5 1Z"/>
</svg>