<svg xmlns="http://www.w3.org/2000/svg" viewBox="0 0 15 15">
  <path d="M7.52 10.24L7.6 10.24L7.69 10.25C8.57 10.3 9.24 11.06 9.19 11.95C9.17 12.26 9.06 12.55 8.88 12.8L8.79 12.92C8.16 13.63 7.08 13.7 6.37 13.07C6.31 13.02 6.26 12.97 6.22 12.92C5.63 12.25 5.69 11.24 6.36 10.65C6.61 10.42 6.92 10.29 7.26 10.25C7.35 10.24 7.43 10.24 7.52 10.24ZM12.49 8.45L10.68 10.28C8.92 8.52 6.08 8.52 4.33 10.28L2.51 8.45C5.27 5.68 9.74 5.68 12.49 8.45ZM13.44 7.5L13.4 7.54L13.36 7.5L13.44 7.5ZM12.09 3.5C12.23 3.57 12.36 3.63 12.5 3.7L12.5 4L12 4L12 4.5L12.5 4.5L12.5 4L13 4L13 4.5L12.5 4.5L12.5 5L13 5L13 4.5L13.5 4.5L13.5 5L13 5L13 5.5L13.5 5.5L13.5 5L14 5L14 5.5L13.5 5.5L13.5 6L14 6L14 5.5L14.5 5.5L14.5 6L14 6L14 6.5L13.5 6.5L13.5 7L13 7L13 6.5L12.5 6.5L12.5 6.76C12.38 6.67 12.26 6.58 12.14 6.5L12.5 6.5L12.5 6L12 6L12 6.41C11.84 6.3 11.67 6.2 11.5 6.11L11.5 6L11.3 6C11.2 5.95 11.1 5.9 11 5.85L11 5.5L10.5 5.5L10.5 5L10 5L10 5.47C9.83 5.41 9.67 5.37 9.5 5.33L9.5 5L9 5L9 5.22C8.83 5.19 8.67 5.16 8.5 5.14L8.5 5L8 5L8 5.1C7.83 5.09 7.67 5.08 7.5 5.08L7.5 5L7 5L7 5.1C6.83 5.11 6.67 5.12 6.5 5.14L6.5 5L6 5L6 5.22C5.83 5.25 5.67 5.29 5.5 5.33L5.5 5L5 5L5 5.47C4.97 5.48 4.93 5.49 4.9 5.5L4.5 5.5L4.5 5.64C4.33 5.71 4.16 5.78 4 5.86L4 5.5L3.5 5.5L3.5 6L3 6L3 6.41C2.95 6.44 2.91 6.47 2.86 6.5L2.5 6.5L2.5 6.76C2.4 6.84 2.3 6.92 2.2 7L2 7L2 7.17C1.88 7.27 1.76 7.39 1.65 7.5L1.56 7.5L1.5 7.44L1.5 7L1.06 7L1 6.94L1 6.5L0.57 6.5L0.5 6.43L0.5 6L0.08 6C-0.02 5.85 -0.03 5.66 0.05 5.5L0.5 5.5L0.5 5.05C0.52 5.04 0.54 5.02 0.56 5L1 5L1 4.65C1.07 4.6 1.13 4.55 1.2 4.5L1.5 4.5L1.5 4.29C1.65 4.19 1.8 4.09 1.95 4L2 4L2 3.97C2.16 3.87 2.33 3.78 2.5 3.69L2.5 4L3 4L3 3.5L3.5 3.5L3.5 3.23C3.67 3.16 3.83 3.1 4 3.04L4 3.5L4.5 3.5L4.5 3L5 3L5 2.76C5.17 2.73 5.33 2.69 5.5 2.66L5.5 3L6 3L6 2.59C6.17 2.57 6.33 2.55 6.5 2.54L6.5 3L7 3L7 2.51C7.17 2.5 7.33 2.5 7.5 2.5L7.5 3L8 3L8 2.51C8.17 2.52 8.33 2.53 8.5 2.55L8.5 3L9 3L9 2.6C9.17 2.62 9.33 2.65 9.5 2.68L9.5 3L10 3L10 2.78C10.17 2.82 10.33 2.86 10.5 2.91L10.5 3L10.81 3C10.87 3.02 10.94 3.04 11 3.06L11 3.5L11.5 3.5L11.5 3.25C11.67 3.31 11.84 3.38 12 3.46L12 3.5L11.5 3.5L11.5 4L12 4L12 3.5L12.09 3.5ZM13.94 7L13.5 7.44L13.5 7L13.94 7ZM12.81 7L13 7L13 7.16C12.94 7.11 12.87 7.05 12.81 7ZM2 6.5L1.5 6.5L1.5 7L2 7L2 6.5ZM14.43 6.5L14 6.94L14 6.5L14.43 6.5ZM2.5 6L2 6L2 6.5L2.5 6.5L2.5 6ZM1.5 6L1 6L1 6.5L1.5 6.5L1.5 6ZM13.5 6L13 6L13 6.5L13.5 6.5L13.5 6ZM14.5 6L14.92 6C14.9 6.02 14.89 6.04 14.87 6.06L14.5 6.43L14.5 6ZM3.71 6C3.64 6.04 3.57 6.07 3.5 6.11L3.5 6L3.71 6ZM2 5.5L1.5 5.5L1.5 6L2 6L2 5.5ZM3 5.5L2.5 5.5L2.5 6L3 6L3 5.5ZM1 5.5L0.5 5.5L0.5 6L1 6L1 5.5ZM13 5.5L12.5 5.5L12.5 6L13 6L13 5.5ZM12 5.5L11.5 5.5L11.5 6L12 6L12 5.5ZM10.1 5.5L10.5 5.5L10.5 5.64C10.37 5.59 10.24 5.54 10.1 5.5ZM3.5 5L3 5L3 5.5L3.5 5.5L3.5 5ZM11.5 5L11 5L11 5.5L11.5 5.5L11.5 5ZM12.5 5L12 5L12 5.5L12.5 5.5L12.5 5ZM14.5 5.06C14.61 5.16 14.72 5.25 14.83 5.35C14.88 5.4 14.92 5.45 14.95 5.5L14.5 5.5L14.5 5.06ZM1.5 5L1 5L1 5.5L1.5 5.5L1.5 5ZM2.5 5L2 5L2 5.5L2.5 5.5L2.5 5ZM4.5 5L4 5L4 5.5L4.5 5.5L4.5 5ZM12 4.5L11.5 4.5L11.5 5L12 5L12 4.5ZM4 4.5L3.5 4.5L3.5 5L4 5L4 4.5ZM8 4.5L7.5 4.5L7.5 5L8 5L8 4.5ZM9 4.5L8.5 4.5L8.5 5L9 5L9 4.5ZM5 4.5L4.5 4.5L4.5 5L5 5L5 4.5ZM11 4.5L10.5 4.5L10.5 5L11 5L11 4.5ZM6 4.5L5.5 4.5L5.5 5L6 5L6 4.5ZM14 4.66C14.14 4.77 14.29 4.88 14.43 5L14 5L14 4.66ZM3 4.5L2.5 4.5L2.5 5L3 5L3 4.5ZM2 4.5L1.5 4.5L1.5 5L2 5L2 4.5ZM10 4.5L9.5 4.5L9.5 5L10 5L10 4.5ZM7 4.5L6.5 4.5L6.5 5L7 5L7 4.5ZM8.5 4L8 4L8 4.5L8.5 4.5L8.5 4ZM13.5 4.3C13.6 4.37 13.69 4.43 13.78 4.5L13.5 4.5L13.5 4.3ZM3.5 4L3 4L3 4.5L3.5 4.5L3.5 4ZM11.5 4L11 4L11 4.5L11.5 4.5L11.5 4ZM2.5 4L2 4L2 4.5L2.5 4.5L2.5 4ZM4.5 4L4 4L4 4.5L4.5 4.5L4.5 4ZM9.5 4L9 4L9 4.5L9.5 4.5L9.5 4ZM5.5 4L5 4L5 4.5L5.5 4.5L5.5 4ZM7.5 4L7 4L7 4.5L7.5 4.5L7.5 4ZM10.5 4L10 4L10 4.5L10.5 4.5L10.5 4ZM6.5 4L6 4L6 4.5L6.5 4.5L6.5 4ZM11 3.5L10.5 3.5L10.5 4L11 4L11 3.5ZM5 3.5L4.5 3.5L4.5 4L5 4L5 3.5ZM8 3.5L7.5 3.5L7.5 4L8 4L8 3.5ZM9 3.5L8.5 3.5L8.5 4L9 4L9 3.5ZM10 3.5L9.5 3.5L9.5 4L10 4L10 3.5ZM7 3.5L6.5 3.5L6.5 4L7 4L7 3.5ZM4 3.5L3.5 3.5L3.5 4L4 4L4 3.5ZM6 3.5L5.5 3.5L5.5 4L6 4L6 3.5ZM6.5 3L6 3L6 3.5L6.5 3.5L6.5 3ZM7.5 3L7 3L7 3.5L7.5 3.5L7.5 3ZM8.5 3L8 3L8 3.5L8.5 3.5L8.5 3ZM9.5 3L9 3L9 3.5L9.5 3.5L9.5 3ZM10.5 3L10 3L10 3.5L10.5 3.5L10.5 3ZM5.5 3L5 3L5 3.5L5.5 3.5L5.5 3ZM3 3.44L3 3.5L2.87 3.5C2.91 3.48 2.96 3.46 3 3.44ZM4.5 2.89L4.5 3L4.13 3C4.25 2.96 4.38 2.92 4.5 2.89Z"/>
</svg>