<svg xmlns="http://www.w3.org/2000/svg" viewBox="0 0 15 15">
  <path d="M7.52 10.24L7.6 10.24L7.69 10.25C8.57 10.3 9.24 11.06 9.19 11.95C9.17 12.26 9.06 12.55 8.88 12.8L8.79 12.92C8.16 13.63 7.08 13.7 6.37 13.07C6.31 13.02 6.26 12.97 6.22 12.92C5.63 12.25 5.69 11.24 6.36 10.65C6.61 10.42 6.92 10.29 7.26 10.25C7.35 10.24 7.43 10.24 7.52 10.24ZM10.96 10L10.68 10.28C10.62 10.22 10.56 10.17 10.5 10.11L10.5 10L10.96 10ZM4.63 10C4.59 10.04 4.54 10.08 4.5 10.12L4.5 10L4.63 10ZM8.5 6.5L8.5 7L9 7L9 6.54C9.17 6.57 9.33 6.61 9.5 6.66L9.5 7L9 7L9 7.5L9.5 7.5L9.5 7L10 7L10 7.5L10.5 7.5L10.5 7.05C10.67 7.13 10.84 7.21 11 7.31L11 7.5L11.32 7.5C11.38 7.54 11.44 7.58 11.5 7.62L11.5 8L12 8L12 8L12 8.5L11.5 8.5L11.5 9L11 9L11 9.5L10.5 9.5L10.5 10L10.37 10C10.25 9.9 10.13 9.81 10 9.72L10 9.5L9.64 9.5C9.59 9.48 9.55 9.45 9.5 9.43L9.5 9L9 9L9 9.22C8.84 9.16 8.67 9.11 8.5 9.07L8.5 9L8.12 9C8.08 8.99 8.04 8.99 8 8.99L8 8.5L7.5 8.5L7.5 8.96C7.33 8.96 7.17 8.97 7 8.99L7 8.5L6.5 8.5L6.5 9L6 9L6 9.22C5.83 9.28 5.66 9.35 5.5 9.43L5.5 9L5 9L5 9.5L4.5 9.5L4.5 10L4.05 10L4 9.95L4 9.5L3.55 9.5L3.5 9.45L3.5 9L3.05 9L3 8.95L3 8.5L3.5 8.5L3.5 8L4 8L4 7.5L4.5 7.5L4.5 7.05C4.53 7.03 4.57 7.02 4.6 7L5 7L5 6.83C5.16 6.77 5.33 6.71 5.5 6.66L5.5 7L6 7L6 6.54C6.06 6.52 6.12 6.51 6.18 6.5L6.5 6.5L6.5 6.45C6.67 6.42 6.83 6.4 7 6.39L7 6.5L7.5 6.5L7.5 6.37C7.67 6.37 7.83 6.38 8 6.39L8 6.5L7.5 6.5L7.5 7L8 7L8 6.5L8.5 6.5ZM11.45 9.5L11 9.96L11 9.5L11.45 9.5ZM5.37 9.5C5.24 9.57 5.12 9.64 5 9.72L5 9.5L5.37 9.5ZM4.5 9L4 9L4 9.5L4.5 9.5L4.5 9ZM10.5 9L10 9L10 9.5L10.5 9.5L10.5 9ZM11.95 9L11.5 9.45L11.5 9L11.95 9ZM6.88 9C6.76 9.02 6.63 9.04 6.5 9.07L6.5 9L6.88 9ZM11 8.5L10.5 8.5L10.5 9L11 9L11 8.5ZM5 8.5L4.5 8.5L4.5 9L5 9L5 8.5ZM10 8.5L9.5 8.5L9.5 9L10 9L10 8.5ZM9 8.5L8.5 8.5L8.5 9L9 9L9 8.5ZM4 8.5L3.5 8.5L3.5 9L4 9L4 8.5ZM6 8.5L5.5 8.5L5.5 9L6 9L6 8.5ZM12.45 8.5L12 8.95L12 8.5L12.45 8.5ZM6.5 8L6 8L6 8.5L6.5 8.5L6.5 8ZM10.5 8L10 8L10 8.5L10.5 8.5L10.5 8ZM8.5 8L8 8L8 8.5L8.5 8.5L8.5 8ZM11.5 8L11 8L11 8.5L11.5 8.5L11.5 8ZM9.5 8L9 8L9 8.5L9.5 8.5L9.5 8ZM3 8.01L3 8.5L2.56 8.5L2.51 8.45C2.67 8.3 2.83 8.15 3 8.01ZM4.5 8L4 8L4 8.5L4.5 8.5L4.5 8ZM7.5 8L7 8L7 8.5L7.5 8.5L7.5 8ZM5.5 8L5 8L5 8.5L5.5 8.5L5.5 8ZM7 7.5L6.5 7.5L6.5 8L7 8L7 7.5ZM8 7.5L7.5 7.5L7.5 8L8 8L8 7.5ZM3.5 7.63L3.5 8L3.01 8C3.17 7.87 3.33 7.74 3.5 7.63ZM11 7.5L10.5 7.5L10.5 8L11 8L11 7.5ZM6 7.5L5.5 7.5L5.5 8L6 8L6 7.5ZM5 7.5L4.5 7.5L4.5 8L5 8L5 7.5ZM9 7.5L8.5 7.5L8.5 8L9 8L9 7.5ZM10 7.5L9.5 7.5L9.5 8L10 8L10 7.5ZM13.44 7.5L13.4 7.54L13.36 7.5L13.44 7.5ZM8.5 7L8 7L8 7.5L8.5 7.5L8.5 7ZM6.5 7L6 7L6 7.5L6.5 7.5L6.5 7ZM5.5 7L5 7L5 7.5L5.5 7.5L5.5 7ZM7.5 7L7 7L7 7.5L7.5 7.5L7.5 7ZM4 7.31L4 7.5L3.69 7.5C3.79 7.43 3.89 7.37 4 7.31ZM12.09 3.5C12.23 3.57 12.36 3.63 12.5 3.7L12.5 4L12 4L12 4.5L12.5 4.5L12.5 4L13 4L13 4.5L12.5 4.5L12.5 5L13 5L13 4.5L13.5 4.5L13.5 5L13 5L13 5.5L13.5 5.5L13.5 5L14 5L14 5.5L13.5 5.5L13.5 6L14 6L14 5.5L14.5 5.5L14.5 6L14 6L14 6.5L13.5 6.5L13.5 7L13 7L13 6.5L12.5 6.5L12.5 6.76C12.38 6.67 12.26 6.58 12.14 6.5L12.5 6.5L12.5 6L12 6L12 6.41C11.84 6.3 11.67 6.2 11.5 6.11L11.5 6L11.3 6C11.2 5.95 11.1 5.9 11 5.85L11 5.5L10.5 5.5L10.5 5L10 5L10 5.47C9.83 5.41 9.67 5.37 9.5 5.33L9.5 5L9 5L9 5.22C8.83 5.19 8.67 5.16 8.5 5.14L8.5 5L8 5L8 5.1C7.83 5.09 7.67 5.08 7.5 5.08L7.5 5L7 5L7 5.1C6.83 5.11 6.67 5.12 6.5 5.14L6.5 5L6 5L6 5.22C5.83 5.25 5.67 5.29 5.5 5.33L5.5 5L5 5L5 5.47C4.97 5.48 4.93 5.49 4.9 5.5L4.5 5.5L4.5 5.64C4.33 5.71 4.16 5.78 4 5.86L4 5.5L3.5 5.5L3.5 6L3 6L3 6.41C2.95 6.44 2.91 6.47 2.86 6.5L2.5 6.5L2.5 6.76C2.4 6.84 2.3 6.92 2.2 7L2 7L2 7.17C1.88 7.27 1.76 7.39 1.65 7.5L1.56 7.5L1.5 7.44L1.5 7L1.06 7L1 6.94L1 6.5L0.57 6.5L0.5 6.43L0.5 6L0.08 6C-0.02 5.85 -0.03 5.66 0.05 5.5L0.5 5.5L0.5 5.05C0.52 5.04 0.54 5.02 0.56 5L1 5L1 4.65C1.07 4.6 1.13 4.55 1.2 4.5L1.5 4.5L1.5 4.29C1.65 4.19 1.8 4.09 1.95 4L2 4L2 3.97C2.16 3.87 2.33 3.78 2.5 3.69L2.5 4L3 4L3 3.5L3.5 3.5L3.5 3.23C3.67 3.16 3.83 3.1 4 3.04L4 3.5L4.5 3.5L4.5 3L5 3L5 2.76C5.17 2.73 5.33 2.69 5.5 2.66L5.5 3L6 3L6 2.59C6.17 2.57 6.33 2.55 6.5 2.54L6.5 3L7 3L7 2.51C7.17 2.5 7.33 2.5 7.5 2.5L7.5 3L8 3L8 2.51C8.17 2.52 8.33 2.53 8.5 2.55L8.5 3L9 3L9 2.6C9.17 2.62 9.33 2.65 9.5 2.68L9.5 3L10 3L10 2.78C10.17 2.82 10.33 2.86 10.5 2.91L10.5 3L10.81 3C10.87 3.02 10.94 3.04 11 3.06L11 3.5L11.5 3.5L11.5 3.25C11.67 3.31 11.84 3.38 12 3.46L12 3.5L11.5 3.5L11.5 4L12 4L12 3.5L12.09 3.5ZM13.94 7L13.5 7.44L13.5 7L13.94 7ZM12.81 7L13 7L13 7.16C12.94 7.11 12.87 7.05 12.81 7ZM2 6.5L1.5 6.5L1.5 7L2 7L2 6.5ZM7 6.5L6.5 6.5L6.5 7L7 7L7 6.5ZM10 6.83C10.14 6.88 10.27 6.94 10.4 7L10 7L10 6.83ZM14.43 6.5L14 6.94L14 6.5L14.43 6.5ZM13.5 6L13 6L13 6.5L13.5 6.5L13.5 6ZM8.5 6.45C8.61 6.46 8.72 6.48 8.83 6.5L8.5 6.5L8.5 6.45ZM1.5 6L1 6L1 6.5L1.5 6.5L1.5 6ZM2.5 6L2 6L2 6.5L2.5 6.5L2.5 6ZM14.5 6L14.92 6C14.9 6.02 14.89 6.04 14.87 6.06L14.5 6.43L14.5 6ZM3.71 6C3.64 6.04 3.57 6.07 3.5 6.11L3.5 6L3.71 6ZM13 5.5L12.5 5.5L12.5 6L13 6L13 5.5ZM12 5.5L11.5 5.5L11.5 6L12 6L12 5.5ZM3 5.5L2.5 5.5L2.5 6L3 6L3 5.5ZM1 5.5L0.5 5.5L0.5 6L1 6L1 5.5ZM2 5.5L1.5 5.5L1.5 6L2 6L2 5.5ZM10.1 5.5L10.5 5.5L10.5 5.64C10.37 5.59 10.24 5.54 10.1 5.5ZM3.5 5L3 5L3 5.5L3.5 5.5L3.5 5ZM2.5 5L2 5L2 5.5L2.5 5.5L2.5 5ZM4.5 5L4 5L4 5.5L4.5 5.5L4.5 5ZM12.5 5L12 5L12 5.5L12.5 5.5L12.5 5ZM1.5 5L1 5L1 5.5L1.5 5.5L1.5 5ZM14.5 5.06C14.61 5.16 14.72 5.25 14.83 5.35C14.88 5.4 14.92 5.45 14.95 5.5L14.5 5.5L14.5 5.06ZM11.5 5L11 5L11 5.5L11.5 5.5L11.5 5ZM4 4.5L3.5 4.5L3.5 5L4 5L4 4.5ZM3 4.5L2.5 4.5L2.5 5L3 5L3 4.5ZM11 4.5L10.5 4.5L10.5 5L11 5L11 4.5ZM7 4.5L6.5 4.5L6.5 5L7 5L7 4.5ZM10 4.5L9.5 4.5L9.5 5L10 5L10 4.5ZM8 4.5L7.5 4.5L7.5 5L8 5L8 4.5ZM9 4.5L8.5 4.5L8.5 5L9 5L9 4.5ZM5 4.5L4.5 4.5L4.5 5L5 5L5 4.5ZM2 4.5L1.5 4.5L1.5 5L2 5L2 4.5ZM12 4.5L11.5 4.5L11.5 5L12 5L12 4.5ZM6 4.5L5.5 4.5L5.5 5L6 5L6 4.5ZM14 4.66C14.14 4.77 14.29 4.88 14.43 5L14 5L14 4.66ZM3.5 4L3 4L3 4.5L3.5 4.5L3.5 4ZM5.5 4L5 4L5 4.5L5.5 4.5L5.5 4ZM9.5 4L9 4L9 4.5L9.5 4.5L9.5 4ZM13.5 4.3C13.6 4.37 13.69 4.43 13.78 4.5L13.5 4.5L13.5 4.3ZM10.5 4L10 4L10 4.5L10.5 4.5L10.5 4ZM2.5 4L2 4L2 4.5L2.5 4.5L2.5 4ZM11.5 4L11 4L11 4.5L11.5 4.5L11.5 4ZM4.5 4L4 4L4 4.5L4.5 4.5L4.5 4ZM6.5 4L6 4L6 4.5L6.5 4.5L6.5 4ZM7.5 4L7 4L7 4.5L7.5 4.5L7.5 4ZM8.5 4L8 4L8 4.5L8.5 4.5L8.5 4ZM7 3.5L6.5 3.5L6.5 4L7 4L7 3.5ZM6 3.5L5.5 3.5L5.5 4L6 4L6 3.5ZM5 3.5L4.5 3.5L4.5 4L5 4L5 3.5ZM9 3.5L8.5 3.5L8.5 4L9 4L9 3.5ZM10 3.5L9.5 3.5L9.5 4L10 4L10 3.5ZM11 3.5L10.5 3.5L10.5 4L11 4L11 3.5ZM8 3.5L7.5 3.5L7.5 4L8 4L8 3.5ZM4 3.5L3.5 3.5L3.5 4L4 4L4 3.5ZM3 3.44L3 3.5L2.87 3.5C2.91 3.48 2.96 3.46 3 3.44ZM8.5 3L8 3L8 3.5L8.5 3.5L8.5 3ZM6.5 3L6 3L6 3.5L6.5 3.5L6.5 3ZM10.5 3L10 3L10 3.5L10.5 3.5L10.5 3ZM5.5 3L5 3L5 3.5L5.5 3.5L5.5 3ZM9.5 3L9 3L9 3.5L9.5 3.5L9.5 3ZM7.5 3L7 3L7 3.5L7.5 3.5L7.5 3ZM4.5 2.89L4.5 3L4.13 3C4.25 2.96 4.38 2.92 4.5 2.89Z"/>
</svg>