<?xml version="1.0" encoding="UTF-8"?>
<svg viewBox="0 0 15 15" version="1.1" xmlns="http://www.w3.org/2000/svg" xmlns:xlink="http://www.w3.org/1999/xlink">
  <path d="M1.14 1L6.14 2L3.94 2.73L5.15 3.94C7.52 1.97 10.68 1.73 14.49 3.16C15 3.35 15.27 3.93 15.07 4.44C14.89 4.93 14.37 5.19 13.88 5.06L10.07 8.86L11.3 10.09L12.14 10L15.08 12.54L13.08 12.94L12.68 14.94L10.14 12L10.24 11.15L9.01 9.93L5.2 13.73L5.21 13.75C5.33 14.24 5.07 14.75 4.59 14.93C4.07 15.12 3.49 14.86 3.3 14.34C1.87 10.54 2.11 7.38 4.08 5L2.88 3.8L2.14 6L1.14 1ZM4.85 12.68L8.3 9.22L5.51 6.42C4.29 8 4.06 10.05 4.85 12.68ZM6.57 5.36L9.36 8.16L12.82 4.7C10.2 3.91 8.14 4.15 6.57 5.36Z" transform="translate(7.5685, 7.82) scale(-1, 1) translate(-7.5685, -7.82)"/>
</svg>