<svg xmlns="http://www.w3.org/2000/svg" viewBox="0 0 15 15">
  <path d="M11.5 9C12.33 9 13 9.67 13 10.5C13 11.33 12.33 12 11.5 12C10.67 12 10 11.33 10 10.5C10 9.67 10.67 9 11.5 9ZM3.5 9C4.33 9 5 9.67 5 10.5C5 11.33 4.33 12 3.5 12C2.67 12 2 11.33 2 10.5C2 9.67 2.67 9 3.5 9ZM11.5 10C11.22 10 11 10.22 11 10.5C11 10.78 11.22 11 11.5 11C11.78 11 12 10.78 12 10.5C12 10.22 11.78 10 11.5 10ZM3.5 10C3.22 10 3 10.22 3 10.5C3 10.78 3.22 11 3.5 11C3.78 11 4 10.78 4 10.5C4 10.22 3.78 10 3.5 10ZM10 4L12 7L14 7C14.55 7 15 7.45 15 8L15 10C15 10.28 14.78 10.5 14.5 10.5L13.5 10.5C13.5 9.4 12.6 8.5 11.5 8.5C10.4 8.5 9.5 9.4 9.5 10.5L5.5 10.5C5.5 9.4 4.6 8.5 3.5 8.5C2.4 8.5 1.5 9.4 1.5 10.5L0 10.5L0 8C0 7.45 0.45 7 1 7L2 7L4 4L10 4ZM6 5L4.75 5L3.5 7L6 7L6 5ZM9.25 5L7 5L7 7L10.5 7L9.25 5Z"/>
</svg>